<svg width="31" height="37" viewBox="0 0 31 37" fill="none" xmlns="http://www.w3.org/2000/svg">
<path d="M15.5 28.5C12.7083 28.5 10.3438 27.5312 8.40625 25.5938C6.46875 23.6562 5.5 21.2917 5.5 18.5C5.5 15.7083 6.46875 13.3438 8.40625 11.4062C10.3438 9.46875 12.7083 8.5 15.5 8.5C16.9375 8.5 18.3125 8.79688 19.625 9.39062C20.9375 9.98438 22.0625 10.8333 23 11.9375V8.5H25.5V17.25H16.75V14.75H22C21.3333 13.5833 20.4219 12.6667 19.2656 12C18.1094 11.3333 16.8542 11 15.5 11C13.4167 11 11.6458 11.7292 10.1875 13.1875C8.72917 14.6458 8 16.4167 8 18.5C8 20.5833 8.72917 22.3542 10.1875 23.8125C11.6458 25.2708 13.4167 26 15.5 26C17.1042 26 18.5521 25.5417 19.8438 24.625C21.1354 23.7083 22.0417 22.5 22.5625 21H25.1875C24.6042 23.2083 23.4167 25.0104 21.625 26.4062C19.8333 27.8021 17.7917 28.5 15.5 28.5Z" fill="#71717A"/>
</svg>
